<svg width="162" height="30" viewBox="0 0 162 30" fill="none" xmlns="http://www.w3.org/2000/svg">
<g clip-path="url(#clip0_4_54)">
<path fill-rule="evenodd" clip-rule="evenodd" d="M0 29.4952C-2.09339e-06 29.6301 0.0536906 29.7595 0.149345 29.8552C0.245 29.9508 0.37484 30.0049 0.510492 30.0057H29.6599C29.7958 30.0049 29.9259 29.9509 30.0221 29.8553C30.1182 29.7598 30.1725 29.6303 30.1732 29.4952V0.510494C30.1732 0.375102 30.1191 0.245256 30.0229 0.14952C29.9266 0.053784 29.796 0 29.6599 0L0.510492 0C0.375101 0 0.245256 0.0534852 0.14952 0.148689C0.0537839 0.243894 0 0.373018 0 0.507657L0 29.4952Z" fill="white"/>
<path fill-rule="evenodd" clip-rule="evenodd" d="M15.0839 15.7175L24.6777 25.2581C24.7248 25.306 24.7812 25.3441 24.8434 25.3699C24.9056 25.3957 24.9725 25.4088 25.0399 25.4084C25.1069 25.4084 25.1733 25.3953 25.2353 25.3698C25.2972 25.3442 25.3535 25.3068 25.4009 25.2597C25.4483 25.2126 25.4859 25.1566 25.5115 25.095C25.5372 25.0334 25.5504 24.9674 25.5504 24.9007V19.8525C25.5509 19.7857 25.538 19.7195 25.5125 19.6576C25.4871 19.5958 25.4495 19.5396 25.4021 19.4923L15.4461 9.58877C15.3499 9.49352 15.2196 9.44004 15.0839 9.44004C14.9481 9.44004 14.8179 9.49352 14.7217 9.58877L9.2289 15.0482V4.82133C9.2289 4.68669 9.17511 4.55756 9.07938 4.46236C8.98364 4.36716 8.8538 4.31367 8.7184 4.31367H5.13355C5.0658 4.31254 4.99849 4.32484 4.93557 4.34984C4.87264 4.37485 4.81535 4.41206 4.76704 4.45932C4.71872 4.50657 4.68035 4.56292 4.65416 4.62507C4.62798 4.68722 4.61449 4.75394 4.6145 4.82133V24.8951C4.61425 24.9957 4.64391 25.0942 4.69977 25.1781C4.75562 25.262 4.83518 25.3277 4.92843 25.3668C5.02169 25.4059 5.12448 25.4167 5.2239 25.3978C5.32331 25.379 5.41492 25.3314 5.48719 25.2609L15.0839 15.7175Z" fill="#101010"/>
<path fill-rule="evenodd" clip-rule="evenodd" d="M20.0774 25.4084C20.1444 25.4084 20.2108 25.3953 20.2727 25.3697C20.3347 25.3442 20.3909 25.3068 20.4383 25.2597C20.4857 25.2126 20.5233 25.1566 20.549 25.095C20.5747 25.0334 20.5879 24.9674 20.5879 24.9007C20.5875 24.8331 20.5737 24.7662 20.5473 24.7039C20.5209 24.6416 20.4823 24.5852 20.4339 24.5377L15.4373 19.5689C15.3428 19.4759 15.2152 19.4237 15.0822 19.4237C14.9493 19.4237 14.8217 19.4759 14.7272 19.5689L9.73063 24.5377C9.65933 24.6089 9.61074 24.6995 9.59097 24.798C9.5712 24.8966 9.58113 24.9988 9.6195 25.0917C9.65787 25.1847 9.72298 25.2644 9.80668 25.3207C9.89037 25.377 9.98892 25.4075 10.09 25.4084H20.0774Z" fill="#D7440B"/>
<path fill-rule="evenodd" clip-rule="evenodd" d="M52.3983 7.32619V22.8707H49.0501V16.5548H42.3567V22.8707H39V7.32619H42.3567V13.5485H49.0501V7.32619H52.3983ZM58.9577 7.32619L62.6309 14.0023L66.3128 7.3347H69.8891L64.3079 17.3205V22.8707H60.9512V17.3205L55.37 7.32619H58.9577ZM80.2272 14.4391H86.3646V20.2048C86.3075 20.2785 86.2163 20.3863 86.0794 20.5253C85.8176 20.7868 85.5374 21.0294 85.2409 21.2513C84.8113 21.5941 84.3523 21.8987 83.8691 22.1617C83.2656 22.4707 82.6296 22.7123 81.9726 22.8821C81.1863 23.1007 80.3735 23.2104 79.557 23.2082C78.4422 23.2336 77.3336 23.0361 76.297 22.6273C75.2603 22.2186 74.3168 21.607 73.5224 20.8287C72.7346 20.0957 72.1091 19.2074 71.6858 18.2205C71.2626 17.2336 71.0508 16.1699 71.064 15.097C71.0503 14.0258 71.2619 12.9636 71.6852 11.9785C72.1086 10.9933 72.7344 10.1071 73.5224 9.37668C74.6228 8.34559 75.9724 7.61454 77.4403 7.25431C78.9082 6.89409 80.4448 6.91689 81.9013 7.32052C82.5437 7.49216 83.1583 7.75381 83.7265 8.09761C84.1669 8.37515 84.5897 8.67918 84.9928 9.00799C85.282 9.23652 85.5467 9.49408 85.7828 9.77656L86.0309 10.1027L83.9062 12.2156L83.7265 11.9717C83.568 11.7815 83.3965 11.6024 83.2132 11.4357C82.9527 11.1838 82.6659 10.9604 82.3576 10.7692C81.9703 10.5422 81.5566 10.3632 81.1256 10.236C80.356 9.97668 79.5349 9.90519 78.7317 10.0276C77.9285 10.15 77.1666 10.4626 76.5104 10.9392C75.8541 11.4158 75.3228 12.0423 74.9611 12.7659C74.5994 13.4896 74.418 14.2891 74.4322 15.097C74.4186 15.7711 74.5421 16.441 74.7952 17.0665C75.0484 17.6919 75.426 18.2601 75.9055 18.7369C76.3849 19.2136 76.9562 19.5891 77.5852 19.8409C78.2141 20.0927 78.8877 20.2155 79.5656 20.202C80.2147 20.209 80.8602 20.1044 81.4735 19.8928C81.9109 19.7586 82.3205 19.5473 82.6827 19.2689L83.0221 18.9853V16.8781H80.2272V14.4391ZM99.0499 14.4391H105.187V20.2048C105.13 20.2785 105.036 20.3863 104.902 20.5253C104.639 20.7853 104.359 21.0278 104.064 21.2513C103.633 21.5935 103.175 21.8981 102.692 22.1617C102.087 22.4706 101.45 22.7122 100.792 22.8821C100.007 23.1005 99.1952 23.2102 98.3797 23.2082C97.2644 23.2337 96.1553 23.0362 95.1182 22.6274C94.0811 22.2187 93.1371 21.607 92.3422 20.8287C91.5547 20.0956 90.9297 19.2072 90.5069 18.2203C90.0841 17.2334 89.8729 16.1697 89.8867 15.097C89.8724 14.026 90.0834 12.9638 90.5063 11.9787C90.9292 10.9936 91.5545 10.1073 92.3422 9.37668C93.4432 8.34558 94.7932 7.61457 96.2616 7.25435C97.73 6.89414 99.267 6.91693 100.724 7.32052C101.366 7.49216 101.981 7.75381 102.549 8.09761C102.989 8.37515 103.412 8.67918 103.815 9.00799C104.104 9.23566 104.368 9.49331 104.603 9.77656L104.854 10.1027L102.729 12.2156L102.549 11.9717C102.391 11.7815 102.219 11.6024 102.036 11.4357C101.775 11.1845 101.488 10.9611 101.18 10.7692C100.793 10.5428 100.379 10.3637 99.9482 10.236C99.1786 9.97668 98.3576 9.90519 97.5543 10.0276C96.7511 10.15 95.9892 10.4626 95.333 10.9392C94.6768 11.4158 94.1454 12.0423 93.7837 12.7659C93.422 13.4896 93.2406 14.2891 93.2548 15.097C93.2412 15.7711 93.3647 16.441 93.6179 17.0665C93.871 17.6919 94.2487 18.2601 94.7281 18.7369C95.2075 19.2136 95.7788 19.5891 96.4078 19.8409C97.0367 20.0927 97.7104 20.2155 98.3882 20.202C99.0374 20.209 99.6828 20.1044 100.296 19.8928C100.734 19.7586 101.143 19.5473 101.505 19.2689L101.845 18.9853V16.8781H99.0527V14.4391H99.0499ZM112.961 19.8787H121.332V22.8707H109.602V7.32619H121.095V10.3154H112.959V13.4351H119.313V16.4328H112.959V19.8787H112.961ZM135.794 22.8707H125.185V7.32619H128.541V19.8787H135.791V22.8707H135.794ZM139.102 22.8707V7.32619H142.456V22.8707H139.102ZM155.472 14.4391H161.592V20.2048C161.538 20.2785 161.444 20.3863 161.307 20.5253C161.044 20.7853 160.764 21.0278 160.469 21.2513C160.039 21.5935 159.58 21.8981 159.097 22.1617C158.492 22.4706 157.855 22.7122 157.198 22.8821C156.411 23.1007 155.598 23.2104 154.782 23.2082C153.669 23.2319 152.563 23.0336 151.528 22.6249C150.494 22.2162 149.552 21.6054 148.759 20.8287C147.971 20.0956 147.346 19.2072 146.923 18.2203C146.501 17.2334 146.289 16.1697 146.303 15.097C146.289 14.026 146.5 12.9638 146.923 11.9787C147.346 10.9936 147.971 10.1073 148.759 9.37668C149.859 8.34559 151.209 7.61454 152.677 7.25431C154.145 6.89409 155.681 6.91689 157.138 7.32052C157.781 7.49169 158.397 7.75336 158.966 8.09761C159.406 8.37584 159.828 8.67984 160.232 9.00799C160.521 9.23628 160.786 9.49386 161.022 9.77656L161.273 10.1027L159.148 12.2156L158.969 11.9717C158.809 11.7864 158.638 11.6121 158.455 11.4498C158.194 11.1986 157.907 10.9753 157.6 10.7834C157.212 10.557 156.798 10.3779 156.368 10.2502C155.864 10.0883 155.337 10.007 154.808 10.0091C154.13 9.99481 153.456 10.1171 152.826 10.3686C152.197 10.62 151.625 10.9955 151.146 11.4725C150.666 11.9494 150.288 12.5179 150.036 13.1437C149.783 13.7695 149.66 14.4397 149.674 15.1141C149.661 15.7882 149.784 16.458 150.037 17.0835C150.29 17.709 150.668 18.2771 151.147 18.7539C151.627 19.2306 152.198 19.6061 152.827 19.8579C153.456 20.1097 154.13 20.2325 154.808 20.219C155.458 20.2262 156.104 20.1216 156.718 19.9099C157.156 19.7756 157.565 19.5643 157.928 19.2859L158.267 19.0023V16.8781H155.475L155.472 14.4391Z" fill="white"/>
</g>
<defs>
<clipPath id="clip0_4_54">
<rect width="162" height="30" fill="white"/>
</clipPath>
</defs>
</svg>
